<?xml version="1.0" encoding="utf-8"?>
<!-- Generator: Adobe Illustrator 27.0.0, SVG Export Plug-In . SVG Version: 6.00 Build 0)  -->
<svg version="1.1" id="Layer_1" xmlns="http://www.w3.org/2000/svg" xmlns:xlink="http://www.w3.org/1999/xlink" x="0px" y="0px"
	 viewBox="0 0 173 53" style="enable-background:new 0 0 173 53;" xml:space="preserve">
<style type="text/css">
	.st0{fill:#FFFFFF;}
	.st1{fill:#761FE3;}
	.st2{opacity:0.5;enable-background:new    ;}
	.st3{clip-path:url(#SVGID_00000046322922842379503080000009885439335434797985_);}
	.st4{opacity:0.5;fill:#761FE3;enable-background:new    ;}
</style>
<g>
	<path class="st0" d="M77.7,33c0,1.1-0.3,2.1-0.8,2.9s-1.3,1.6-2.3,2.1c-1,0.5-2.3,0.8-3.8,0.8c-0.8,0-1.4,0-2-0.1
		c-0.6-0.1-1.2-0.2-1.7-0.4c-0.5-0.2-1-0.4-1.5-0.6V34c0.8,0.4,1.7,0.8,2.7,1c1,0.3,1.9,0.4,2.7,0.4c0.7,0,1.2-0.1,1.6-0.3
		c0.4-0.2,0.7-0.4,0.9-0.7c0.2-0.3,0.3-0.7,0.3-1.1c0-0.5-0.1-0.9-0.4-1.2c-0.2-0.3-0.6-0.6-1.1-0.9c-0.5-0.3-1.2-0.6-2.1-1
		c-1-0.4-1.8-0.9-2.4-1.4c-0.7-0.5-1.2-1.1-1.5-1.8c-0.4-0.7-0.5-1.6-0.5-2.7c0-1.1,0.3-2.1,0.8-2.9c0.5-0.8,1.3-1.4,2.2-1.8
		c1-0.4,2.1-0.6,3.3-0.6c1.1,0,2.1,0.1,3,0.4c0.9,0.2,1.7,0.5,2.4,0.9l-1.2,3.3c-0.7-0.3-1.4-0.6-2.2-0.8c-0.7-0.2-1.5-0.3-2.1-0.3
		c-0.6,0-1,0.1-1.4,0.2c-0.4,0.2-0.6,0.4-0.8,0.6c-0.2,0.3-0.3,0.6-0.3,1c0,0.4,0.1,0.8,0.4,1.1c0.2,0.3,0.6,0.6,1.2,0.9
		c0.5,0.3,1.3,0.7,2.2,1.1c0.9,0.4,1.7,0.9,2.4,1.4c0.7,0.5,1.2,1.1,1.5,1.7C77.5,31.2,77.7,32,77.7,33z"/>
	<path class="st0" d="M86.6,23.6c1.7,0,3,0.4,3.9,1.3c0.9,0.9,1.4,2.2,1.4,3.9v9.8h-2.6l-0.7-2h-0.1c-0.4,0.5-0.8,1-1.2,1.3
		c-0.4,0.3-0.9,0.6-1.4,0.7c-0.5,0.2-1.2,0.2-2,0.2c-0.8,0-1.5-0.2-2.2-0.5c-0.6-0.3-1.1-0.8-1.5-1.5c-0.4-0.7-0.6-1.5-0.6-2.6
		c0-1.5,0.5-2.7,1.6-3.5c1-0.8,2.6-1.2,4.6-1.3l2.3-0.1V29c0-0.9-0.2-1.5-0.6-1.8c-0.4-0.3-0.9-0.5-1.6-0.5c-0.6,0-1.3,0.1-1.9,0.3
		c-0.7,0.2-1.3,0.5-1.9,0.8L81,24.9c0.7-0.4,1.5-0.7,2.5-0.9C84.4,23.8,85.5,23.6,86.6,23.6z M86.7,31.9c-1.2,0-2,0.2-2.5,0.6
		c-0.5,0.4-0.7,0.9-0.7,1.6c0,0.6,0.2,1.1,0.5,1.4c0.3,0.3,0.8,0.4,1.3,0.4c0.8,0,1.5-0.2,2-0.8c0.5-0.5,0.8-1.2,0.8-2.1v-1.2
		L86.7,31.9z"/>
	<path class="st0" d="M111.6,23.6c1.6,0,2.8,0.4,3.6,1.3c0.8,0.8,1.2,2.2,1.2,4.1v9.6h-3.8V30c0-1.1-0.2-1.9-0.5-2.4
		c-0.4-0.5-0.9-0.7-1.6-0.7c-1,0-1.7,0.4-2.1,1.1s-0.6,1.8-0.6,3.2v7.3H104V30c0-0.7-0.1-1.3-0.2-1.8c-0.2-0.5-0.4-0.8-0.7-1
		c-0.3-0.2-0.7-0.3-1.2-0.3c-0.7,0-1.2,0.2-1.6,0.6c-0.4,0.4-0.7,0.9-0.8,1.6c-0.2,0.7-0.2,1.6-0.2,2.6v6.9h-3.8V23.9h2.9l0.6,1.9
		h0.1c0.3-0.4,0.6-0.8,1-1.2c0.4-0.3,0.8-0.6,1.4-0.7c0.5-0.2,1.1-0.3,1.7-0.3c1,0,1.9,0.2,2.5,0.6c0.7,0.4,1.2,0.9,1.6,1.6h0.1
		c0.5-0.7,1-1.3,1.8-1.7C109.9,23.8,110.7,23.6,111.6,23.6z"/>
	<path class="st0" d="M129.7,34.2c0,0.9-0.2,1.7-0.6,2.4c-0.4,0.7-1,1.2-1.9,1.6c-0.8,0.4-1.9,0.6-3.2,0.6c-1,0-1.8-0.1-2.6-0.2
		c-0.7-0.1-1.4-0.4-2.1-0.7v-3.4c0.7,0.4,1.5,0.7,2.4,0.9c0.9,0.2,1.6,0.3,2.2,0.3c0.8,0,1.3-0.1,1.7-0.3c0.3-0.2,0.5-0.5,0.5-0.9
		c0-0.3-0.1-0.5-0.3-0.7c-0.2-0.2-0.5-0.4-0.9-0.7c-0.5-0.2-1.1-0.5-1.9-0.9c-0.8-0.4-1.5-0.7-2.1-1.1s-1-0.8-1.2-1.4
		s-0.4-1.2-0.4-2c0-1.3,0.5-2.4,1.5-3.1c1-0.7,2.3-1.1,4-1.1c0.9,0,1.7,0.1,2.5,0.3c0.8,0.2,1.5,0.5,2.3,0.8l-1.1,2.8
		c-0.6-0.3-1.3-0.6-2-0.8c-0.7-0.2-1.3-0.3-1.8-0.3c-0.6,0-1,0.1-1.3,0.3s-0.5,0.5-0.5,0.8c0,0.3,0.1,0.5,0.3,0.7s0.5,0.4,0.9,0.6
		c0.4,0.2,1.1,0.5,1.9,0.8c0.8,0.3,1.5,0.7,2.1,1.1c0.6,0.4,1,0.9,1.3,1.4C129.6,32.7,129.7,33.4,129.7,34.2z"/>
	<path class="st0" d="M138.7,23.6c1.7,0,3,0.4,3.9,1.3c0.9,0.9,1.4,2.2,1.4,3.9v9.8h-2.6l-0.7-2h-0.1c-0.4,0.5-0.8,1-1.2,1.3
		c-0.4,0.3-0.9,0.6-1.4,0.7c-0.5,0.2-1.2,0.2-2,0.2c-0.8,0-1.5-0.2-2.2-0.5c-0.6-0.3-1.1-0.8-1.5-1.5s-0.6-1.5-0.6-2.6
		c0-1.5,0.5-2.7,1.6-3.5c1-0.8,2.6-1.2,4.6-1.3l2.3-0.1V29c0-0.9-0.2-1.5-0.6-1.8c-0.4-0.3-0.9-0.5-1.6-0.5c-0.6,0-1.3,0.1-1.9,0.3
		s-1.3,0.5-1.9,0.8l-1.1-2.8c0.7-0.4,1.5-0.7,2.5-0.9C136.6,23.8,137.6,23.6,138.7,23.6z M138.8,31.9c-1.2,0-2,0.2-2.5,0.6
		c-0.5,0.4-0.7,0.9-0.7,1.6c0,0.6,0.2,1.1,0.5,1.4c0.3,0.3,0.8,0.4,1.3,0.4c0.8,0,1.5-0.2,2-0.8c0.5-0.5,0.8-1.2,0.8-2.1v-1.2
		L138.8,31.9z"/>
	<path class="st0" d="M155.2,23.6c0.3,0,0.5,0,0.8,0s0.5,0.1,0.7,0.1l-0.4,3.8c-0.2,0-0.4-0.1-0.7-0.1c-0.3,0-0.6-0.1-0.9-0.1
		c-0.4,0-0.8,0.1-1.2,0.2c-0.4,0.1-0.8,0.3-1.1,0.6s-0.6,0.7-0.8,1.1s-0.3,1.1-0.3,1.8v7.4h-3.8V23.9h2.9l0.6,2.5h0.2
		c0.3-0.5,0.6-1,1-1.4s0.9-0.7,1.4-1C154.1,23.8,154.7,23.6,155.2,23.6z"/>
	<path class="st0" d="M164.5,23.6c1.7,0,3,0.4,3.9,1.3c0.9,0.9,1.4,2.2,1.4,3.9v9.8h-2.6l-0.7-2h-0.1c-0.4,0.5-0.8,1-1.2,1.3
		c-0.4,0.3-0.9,0.6-1.4,0.7c-0.5,0.2-1.2,0.2-2,0.2c-0.8,0-1.5-0.2-2.2-0.5c-0.6-0.3-1.1-0.8-1.5-1.5s-0.6-1.5-0.6-2.6
		c0-1.5,0.5-2.7,1.6-3.5c1-0.8,2.6-1.2,4.6-1.3l2.3-0.1V29c0-0.9-0.2-1.5-0.6-1.8c-0.4-0.3-0.9-0.5-1.6-0.5c-0.6,0-1.3,0.1-1.9,0.3
		s-1.3,0.5-1.9,0.8l-1.1-2.8c0.7-0.4,1.5-0.7,2.5-0.9C162.4,23.8,163.4,23.6,164.5,23.6z M164.6,31.9c-1.2,0-2,0.2-2.5,0.6
		c-0.5,0.4-0.7,0.9-0.7,1.6c0,0.6,0.2,1.1,0.5,1.4c0.3,0.3,0.8,0.4,1.3,0.4c0.8,0,1.5-0.2,2-0.8c0.5-0.5,0.8-1.2,0.8-2.1v-1.2
		L164.6,31.9z"/>
</g>
<g>
	<g>
		<path class="st1" d="M23.5,23.8c-0.2-0.6-0.6-1.1-1-1.4C22,22.1,21.4,22,20.7,22c-1.1,0-1.9,0.3-2.5,0.8c-0.6,0.5-1,1.2-1.3,2.2
			c-0.1,0.5-0.2,1.2-0.3,1.8c1.5,0.9,3.4,1.7,5.5,2.6c0.6,0.2,1.1,0.4,1.7,0.6v-3.7C23.9,25.2,23.8,24.4,23.5,23.8z M35.1,6.8
			C32.8,6.3,30.3,6,27.5,6c-5,0-9.1,1-12.1,2.8c-3.1,1.9-4.6,4.7-4.6,8.3c0,0.3,0,0.6,0,0.8h4.4l0.8,2.5h0.2
			c0.4-0.6,0.9-1.1,1.5-1.6c0.6-0.4,1.3-0.8,2.1-1c0.7-0.2,1.4-0.3,2.2-0.3c-0.2-0.3-0.3-0.7-0.3-1.1c0-0.9,0.5-1.6,1.5-2.1
			c1-0.5,2.3-0.8,4.1-0.8c1.6,0,3.4,0.3,5.5,0.8c2.1,0.5,4.1,1.2,6,2l3.3-7.5C39.8,8.1,37.4,7.3,35.1,6.8z M36.9,37.7V26.2
			c0-0.5,0-1-0.1-1.4c-1.5-0.8-3.2-1.6-5.2-2.4c-0.4,0.3-0.8,0.6-1,1c-0.6,1-0.9,2.5-0.9,4.4v4.6c0.6,0.3,1,0.7,1.3,1
			c0.5,0.6,0.8,1.2,0.8,2c0,1.1-0.5,1.9-1.6,2.5c-1.1,0.6-2.8,0.9-5.1,0.9c-1.9,0-4.2-0.3-6.8-0.9c-0.5-0.1-1.1-0.2-1.6-0.4
			c-2-0.5-3.9-1.2-5.7-2v9.1c2.1,0.8,4.3,1.4,6.6,1.8c2.3,0.4,4.9,0.5,7.9,0.5c3.9,0,7.2-0.5,9.8-1.5c2.6-1,4.5-2.4,5.7-4.3
			c0.7-1.1,1.2-2.2,1.5-3.5H36.9z"/>
	</g>
	<g class="st2">
		<path class="st1" d="M15.9,26.3c-1.7-1-3-2.3-3.8-3.7c-0.7-1.3-1.1-2.8-1.2-4.6h0v19.7h5.8v-9.2c0-0.6,0-1.2,0.1-1.7
			C16.4,26.6,16.2,26.5,15.9,26.3z M28.1,31.6c-1.1-0.5-2.5-1.1-4.2-1.7v7.7h5.8v-5.2C29.2,32.2,28.7,31.9,28.1,31.6z M42.7,34.6
			 M40.9,19.3c-1.2-1.1-3.1-1.7-5.5-1.7c-1.3,0-2.5,0.2-3.6,0.7c-1.1,0.5-2,1.2-2.7,2.2h-0.2c-0.6-1-1.4-1.7-2.4-2.2
			c-1-0.5-2.3-0.8-3.9-0.8c-0.2,0-0.3,0-0.5,0c0.1,0.3,0.3,0.5,0.5,0.7c0.5,0.5,1.5,1.1,2.8,1.7c1.4,0.6,3.3,1.3,5.7,2.2
			c0.1,0,0.3,0.1,0.4,0.1c0.6-0.3,1.3-0.5,2.1-0.5c1.1,0,1.9,0.3,2.4,1c0.4,0.4,0.6,1.1,0.7,1.9c0.2,0.1,0.5,0.3,0.7,0.4
			c1.7,1,3,2.3,3.8,3.8c0.9,1.5,1.3,3.3,1.3,5.6v-9.7C42.7,22.3,42.1,20.5,40.9,19.3z M23.9,29.9v10h5.8v-7.5
			c-0.5-0.3-1-0.5-1.6-0.8C27,31.2,25.6,30.6,23.9,29.9z"/>
	</g>
	<g>
		<defs>
			<rect id="SVGID_1_" width="53.5" height="52.4"/>
		</defs>
		<clipPath id="SVGID_00000042015139098777331030000017077496417539929273_">
			<use xlink:href="#SVGID_1_"  style="overflow:visible;"/>
		</clipPath>
		<g style="clip-path:url(#SVGID_00000042015139098777331030000017077496417539929273_);">
			<path class="st1" d="M6.2,30.7c0.4,0.4,0.6,1,0.5,1.5c0,0.5-0.2,1-0.6,1.4c-0.8,0.8-2.1,0.7-2.9-0.1c-0.4-0.4-0.6-1-0.5-1.5
				c0-0.5,0.2-1,0.6-1.4C4.1,29.8,5.4,29.8,6.2,30.7z"/>
			<path class="st4" d="M11.7,7.3c0,0.5-0.2,1-0.6,1.4c-0.8,0.8-2.1,0.7-2.9-0.1c-0.4-0.4-0.6-1-0.5-1.5c0-0.5,0.2-1,0.6-1.4
				C9.1,5,10.4,5,11.2,5.9C11.5,6.3,11.7,6.8,11.7,7.3z"/>
			<path class="st1" d="M36,3.5c-0.8,0.8-2.1,0.7-2.9-0.1c-0.4-0.4-0.6-1-0.5-1.5c0-0.5,0.2-1,0.6-1.4c0.8-0.8,2.1-0.7,2.9,0.1
				c0.4,0.4,0.6,1,0.5,1.5C36.6,2.6,36.4,3.2,36,3.5z"/>
			<path class="st4" d="M47,21.8c-0.4-0.4-0.6-1-0.5-1.5c0-0.5,0.2-1,0.6-1.4c0.8-0.8,2.1-0.7,2.9,0.1c0.4,0.4,0.6,1,0.5,1.5
				c0,0.5-0.2,1-0.6,1.4C49.1,22.7,47.8,22.6,47,21.8z"/>
			<path class="st1" d="M42.3,44.8c0-0.5,0.2-1,0.6-1.4c0.8-0.8,2.1-0.7,2.9,0.1c0.4,0.4,0.6,1,0.5,1.5c0,0.5-0.2,1-0.6,1.4
				c-0.8,0.8-2.1,0.7-2.9-0.1C42.4,45.9,42.3,45.3,42.3,44.8z"/>
			<path class="st4" d="M17.5,48.9c0.8-0.8,2.1-0.7,2.9,0.1c0.4,0.4,0.6,1,0.5,1.5c0,0.5-0.2,1-0.6,1.4c-0.8,0.8-2.1,0.7-2.9-0.1
				c-0.4-0.4-0.6-1-0.5-1.5C16.9,49.8,17.2,49.3,17.5,48.9z"/>
		</g>
	</g>
</g>
</svg>
