<?xml version="1.0" encoding="utf-8"?>
<!-- Generator: Adobe Illustrator 27.0.0, SVG Export Plug-In . SVG Version: 6.00 Build 0)  -->
<svg version="1.1" id="Layer_1" xmlns="http://www.w3.org/2000/svg" xmlns:xlink="http://www.w3.org/1999/xlink" x="0px" y="0px"
	 viewBox="0 0 173 53" style="enable-background:new 0 0 173 53;" xml:space="preserve">
<style type="text/css">
	.st0{fill:#0B0B0B;}
	.st1{fill:#761FE3;}
	.st2{opacity:0.5;enable-background:new    ;}
	.st3{clip-path:url(#SVGID_00000107590057288458669930000000530447065313445551_);}
	.st4{opacity:0.5;fill:#761FE3;enable-background:new    ;}
</style>
<g>
	<path class="st0" d="M76.7,33.4c0,1.1-0.3,2.1-0.8,2.9c-0.5,0.9-1.3,1.6-2.3,2.1c-1,0.5-2.3,0.8-3.8,0.8c-0.8,0-1.4,0-2-0.1
		c-0.6-0.1-1.2-0.2-1.7-0.4c-0.5-0.2-1-0.4-1.5-0.6v-3.7c0.8,0.4,1.7,0.8,2.7,1c1,0.3,1.9,0.4,2.7,0.4c0.7,0,1.2-0.1,1.6-0.3
		c0.4-0.2,0.7-0.4,0.9-0.7c0.2-0.3,0.3-0.7,0.3-1.1c0-0.5-0.1-0.8-0.4-1.2c-0.2-0.3-0.6-0.6-1.1-0.9c-0.5-0.3-1.2-0.6-2.1-1
		c-1-0.4-1.8-0.9-2.4-1.4c-0.7-0.5-1.2-1.1-1.5-1.8c-0.4-0.7-0.5-1.6-0.5-2.7c0-1.1,0.3-2.1,0.8-2.9c0.5-0.8,1.3-1.4,2.2-1.8
		c1-0.4,2.1-0.6,3.3-0.6c1.1,0,2.1,0.1,3,0.4c0.9,0.2,1.7,0.5,2.4,0.9l-1.2,3.2c-0.7-0.3-1.4-0.6-2.2-0.8c-0.7-0.2-1.5-0.3-2.1-0.3
		c-0.6,0-1,0.1-1.4,0.2c-0.4,0.2-0.6,0.4-0.8,0.6c-0.2,0.3-0.3,0.6-0.3,1c0,0.4,0.1,0.8,0.4,1.1c0.2,0.3,0.6,0.6,1.2,0.9
		c0.5,0.3,1.3,0.7,2.2,1.1c0.9,0.4,1.7,0.9,2.4,1.4c0.7,0.5,1.2,1.1,1.5,1.7C76.5,31.6,76.7,32.4,76.7,33.4z"/>
	<path class="st0" d="M85.6,24.1c1.7,0,3,0.4,3.9,1.3c0.9,0.9,1.4,2.2,1.4,3.8V39h-2.6l-0.7-2h-0.1c-0.4,0.5-0.8,0.9-1.2,1.3
		c-0.4,0.3-0.9,0.6-1.4,0.7c-0.5,0.2-1.2,0.2-2,0.2c-0.8,0-1.5-0.2-2.2-0.5c-0.6-0.3-1.1-0.8-1.5-1.5c-0.4-0.7-0.6-1.5-0.6-2.6
		c0-1.5,0.5-2.7,1.6-3.5c1-0.8,2.6-1.2,4.6-1.3l2.3-0.1v-0.5c0-0.9-0.2-1.5-0.6-1.8c-0.4-0.3-0.9-0.5-1.6-0.5
		c-0.6,0-1.3,0.1-1.9,0.3c-0.7,0.2-1.3,0.5-1.9,0.8l-1.1-2.8c0.7-0.4,1.5-0.7,2.5-0.9C83.5,24.2,84.5,24.1,85.6,24.1z M85.7,32.3
		c-1.2,0-2,0.2-2.5,0.6c-0.5,0.4-0.7,0.9-0.7,1.6c0,0.6,0.2,1.1,0.5,1.4c0.3,0.3,0.8,0.4,1.3,0.4c0.8,0,1.5-0.2,2-0.8
		c0.5-0.5,0.8-1.2,0.8-2.1v-1.2L85.7,32.3z"/>
	<path class="st0" d="M110.6,24.1c1.6,0,2.8,0.4,3.6,1.3c0.8,0.8,1.2,2.2,1.2,4.1V39h-3.8v-8.5c0-1.1-0.2-1.9-0.5-2.4
		c-0.4-0.5-0.9-0.7-1.6-0.7c-1,0-1.7,0.4-2.1,1.1c-0.4,0.8-0.6,1.8-0.6,3.2V39h-3.8v-8.5c0-0.7-0.1-1.3-0.2-1.8
		c-0.2-0.5-0.4-0.8-0.7-1c-0.3-0.2-0.7-0.3-1.2-0.3c-0.7,0-1.2,0.2-1.6,0.6c-0.4,0.4-0.7,0.9-0.8,1.6c-0.2,0.7-0.2,1.6-0.2,2.6V39
		h-3.8V24.4h2.9l0.6,1.9h0.1c0.3-0.4,0.6-0.8,1-1.2c0.4-0.3,0.8-0.6,1.4-0.7c0.5-0.2,1.1-0.3,1.7-0.3c1,0,1.9,0.2,2.5,0.6
		c0.7,0.4,1.2,0.9,1.6,1.6h0.1c0.5-0.7,1-1.3,1.8-1.6C109,24.3,109.7,24.1,110.6,24.1z"/>
	<path class="st0" d="M128.7,34.7c0,0.9-0.2,1.7-0.6,2.4c-0.4,0.7-1,1.2-1.9,1.6c-0.8,0.4-1.9,0.6-3.2,0.6c-1,0-1.8-0.1-2.6-0.2
		c-0.7-0.1-1.4-0.4-2.1-0.7v-3.4c0.7,0.4,1.5,0.7,2.4,0.9c0.9,0.2,1.6,0.3,2.2,0.3c0.8,0,1.3-0.1,1.7-0.3c0.3-0.2,0.5-0.5,0.5-0.9
		c0-0.3-0.1-0.5-0.3-0.7c-0.2-0.2-0.5-0.4-0.9-0.7c-0.5-0.2-1.1-0.5-1.9-0.9c-0.8-0.4-1.5-0.7-2.1-1.1c-0.6-0.4-1-0.8-1.2-1.4
		c-0.3-0.5-0.4-1.2-0.4-2c0-1.3,0.5-2.4,1.5-3.1c1-0.7,2.3-1.1,4-1.1c0.9,0,1.7,0.1,2.5,0.3c0.8,0.2,1.5,0.5,2.3,0.8l-1.1,2.8
		c-0.6-0.3-1.3-0.6-2-0.8c-0.7-0.2-1.3-0.3-1.8-0.3c-0.6,0-1,0.1-1.3,0.3c-0.3,0.2-0.5,0.5-0.5,0.8c0,0.3,0.1,0.5,0.3,0.7
		c0.2,0.2,0.5,0.4,0.9,0.6c0.4,0.2,1.1,0.5,1.9,0.8c0.8,0.3,1.5,0.7,2.1,1.1c0.6,0.4,1,0.8,1.3,1.4
		C128.6,33.1,128.7,33.8,128.7,34.7z"/>
	<path class="st0" d="M137.7,24.1c1.7,0,3,0.4,3.9,1.3c0.9,0.9,1.4,2.2,1.4,3.8V39h-2.6l-0.7-2h-0.1c-0.4,0.5-0.8,0.9-1.2,1.3
		c-0.4,0.3-0.9,0.6-1.4,0.7c-0.5,0.2-1.2,0.2-2,0.2c-0.8,0-1.5-0.2-2.2-0.5c-0.6-0.3-1.1-0.8-1.5-1.5c-0.4-0.7-0.6-1.5-0.6-2.6
		c0-1.5,0.5-2.7,1.6-3.5c1-0.8,2.6-1.2,4.6-1.3l2.3-0.1v-0.5c0-0.9-0.2-1.5-0.6-1.8c-0.4-0.3-0.9-0.5-1.6-0.5
		c-0.6,0-1.3,0.1-1.9,0.3s-1.3,0.5-1.9,0.8l-1.1-2.8c0.7-0.4,1.5-0.7,2.5-0.9C135.6,24.2,136.6,24.1,137.7,24.1z M137.8,32.3
		c-1.2,0-2,0.2-2.5,0.6c-0.5,0.4-0.7,0.9-0.7,1.6c0,0.6,0.2,1.1,0.5,1.4c0.3,0.3,0.8,0.4,1.3,0.4c0.8,0,1.5-0.2,2-0.8
		c0.5-0.5,0.8-1.2,0.8-2.1v-1.2L137.8,32.3z"/>
	<path class="st0" d="M154.2,24.1c0.3,0,0.5,0,0.8,0c0.3,0,0.5,0.1,0.7,0.1l-0.4,3.8c-0.2,0-0.4-0.1-0.7-0.1c-0.3,0-0.6-0.1-0.9-0.1
		c-0.4,0-0.8,0.1-1.2,0.2c-0.4,0.1-0.8,0.3-1.1,0.6c-0.3,0.3-0.6,0.7-0.8,1.1c-0.2,0.5-0.3,1.1-0.3,1.8V39h-3.8V24.4h2.9l0.6,2.5
		h0.2c0.3-0.5,0.6-1,1-1.4c0.4-0.4,0.9-0.7,1.4-1C153.1,24.2,153.6,24.1,154.2,24.1z"/>
	<path class="st0" d="M163.4,24.1c1.7,0,3,0.4,3.9,1.3c0.9,0.9,1.4,2.2,1.4,3.8V39h-2.6l-0.7-2h-0.1c-0.4,0.5-0.8,0.9-1.2,1.3
		c-0.4,0.3-0.9,0.6-1.4,0.7c-0.5,0.2-1.2,0.2-2,0.2c-0.8,0-1.5-0.2-2.2-0.5c-0.6-0.3-1.1-0.8-1.5-1.5c-0.4-0.7-0.6-1.5-0.6-2.6
		c0-1.5,0.5-2.7,1.6-3.5c1-0.8,2.6-1.2,4.6-1.3l2.3-0.1v-0.5c0-0.9-0.2-1.5-0.6-1.8c-0.4-0.3-0.9-0.5-1.6-0.5
		c-0.6,0-1.3,0.1-1.9,0.3s-1.3,0.5-1.9,0.8l-1.1-2.8c0.7-0.4,1.5-0.7,2.5-0.9C161.3,24.2,162.3,24.1,163.4,24.1z M163.5,32.3
		c-1.2,0-2,0.2-2.5,0.6c-0.5,0.4-0.7,0.9-0.7,1.6c0,0.6,0.2,1.1,0.5,1.4c0.3,0.3,0.8,0.4,1.3,0.4c0.8,0,1.5-0.2,2-0.8
		c0.5-0.5,0.8-1.2,0.8-2.1v-1.2L163.5,32.3z"/>
</g>
<g>
	<g>
		<path class="st1" d="M24.8,24.2c-0.2-0.6-0.6-1.1-1-1.4c-0.5-0.3-1.1-0.4-1.8-0.4c-1.1,0-1.9,0.3-2.5,0.8c-0.6,0.5-1,1.2-1.3,2.2
			c-0.1,0.5-0.2,1.2-0.3,1.8c1.6,0.9,3.4,1.7,5.6,2.6c0.6,0.2,1.1,0.4,1.7,0.6v-3.7C25.1,25.7,25,24.8,24.8,24.2z M36.4,7.1
			c-2.4-0.5-4.9-0.8-7.6-0.8c-5,0-9.1,1-12.2,2.9c-3.1,1.9-4.6,4.7-4.6,8.3c0,0.3,0,0.6,0,0.8h4.4l0.8,2.5h0.2
			c0.4-0.6,0.9-1.1,1.5-1.6c0.6-0.4,1.3-0.8,2.1-1c0.7-0.2,1.4-0.3,2.2-0.3c-0.2-0.3-0.3-0.7-0.3-1.1c0-0.9,0.5-1.6,1.5-2.1
			c1-0.5,2.3-0.8,4.1-0.8c1.6,0,3.4,0.3,5.5,0.8c2.1,0.5,4.1,1.2,6,2.1l3.3-7.5C41.1,8.4,38.8,7.7,36.4,7.1z M38.3,38.2V26.6
			c0-0.5,0-1-0.1-1.4c-1.5-0.8-3.2-1.6-5.3-2.4c-0.4,0.3-0.8,0.6-1,1c-0.6,1-0.9,2.5-0.9,4.4v4.6c0.6,0.3,1,0.7,1.3,1
			c0.5,0.6,0.8,1.2,0.8,2c0,1.1-0.5,1.9-1.6,2.5c-1.1,0.6-2.8,0.9-5.1,0.9c-1.9,0-4.2-0.3-6.8-0.9c-0.5-0.1-1.1-0.2-1.6-0.4
			c-2-0.5-4-1.2-5.8-2v9.1c2.1,0.8,4.3,1.4,6.6,1.8c2.3,0.4,4.9,0.5,7.9,0.5c4,0,7.2-0.5,9.8-1.5c2.6-1,4.5-2.5,5.8-4.3
			c0.7-1.1,1.2-2.2,1.5-3.5H38.3z"/>
	</g>
	<g class="st2">
		<path class="st1" d="M17.1,26.7c-1.7-1-3-2.3-3.8-3.7c-0.7-1.3-1.1-2.8-1.2-4.6h0v19.8h5.8v-9.3c0-0.6,0-1.2,0.1-1.7
			C17.6,27,17.4,26.9,17.1,26.7z M29.3,32.1c-1.1-0.5-2.5-1.1-4.2-1.7v7.8h5.8v-5.2C30.5,32.6,30,32.4,29.3,32.1z M44,35.1
			 M42.2,19.7C41,18.6,39.1,18,36.7,18c-1.3,0-2.6,0.2-3.7,0.8C32,19.3,31,20,30.4,21h-0.2c-0.6-1-1.4-1.7-2.4-2.2
			c-1-0.5-2.3-0.8-3.9-0.8c-0.2,0-0.3,0-0.5,0c0.1,0.3,0.3,0.5,0.5,0.8c0.5,0.5,1.5,1.1,2.9,1.7c1.4,0.6,3.3,1.3,5.8,2.3
			c0.1,0,0.3,0.1,0.4,0.1c0.6-0.3,1.3-0.5,2.1-0.5c1.1,0,1.9,0.3,2.4,1c0.4,0.4,0.6,1.1,0.7,1.9c0.2,0.1,0.5,0.3,0.7,0.4
			c1.7,1,3,2.3,3.9,3.8c0.9,1.5,1.3,3.4,1.3,5.6v-9.8C44,22.7,43.4,20.9,42.2,19.7z M25.1,30.4v10.1h5.8v-7.5
			c-0.5-0.3-1-0.5-1.6-0.8C28.3,31.6,26.9,31,25.1,30.4z"/>
	</g>
	<g>
		<defs>
			<rect id="SVGID_1_" x="1.1" y="0.3" width="53.8" height="52.7"/>
		</defs>
		<clipPath id="SVGID_00000042730134720589674760000008360348378115713679_">
			<use xlink:href="#SVGID_1_"  style="overflow:visible;"/>
		</clipPath>
		<g style="clip-path:url(#SVGID_00000042730134720589674760000008360348378115713679_);">
			<path class="st1" d="M7.3,31.1c0.4,0.4,0.6,1,0.5,1.5c0,0.5-0.2,1-0.7,1.4c-0.8,0.8-2.1,0.7-2.9-0.1c-0.4-0.4-0.6-1-0.5-1.5
				c0-0.5,0.2-1,0.7-1.4C5.2,30.2,6.5,30.3,7.3,31.1z"/>
			<path class="st4" d="M12.9,7.6c0,0.5-0.2,1-0.7,1.4C11.4,9.8,10.1,9.8,9.3,9C8.9,8.5,8.8,8,8.8,7.5c0-0.5,0.2-1,0.7-1.4
				c0.8-0.8,2.1-0.7,2.9,0.1C12.7,6.6,12.9,7.1,12.9,7.6z"/>
			<path class="st1" d="M37.3,3.8c-0.8,0.8-2.1,0.7-2.9-0.1c-0.4-0.4-0.6-1-0.5-1.5s0.2-1,0.7-1.4c0.8-0.8,2.1-0.7,2.9,0.1
				c0.4,0.4,0.6,1,0.5,1.5C37.9,2.9,37.7,3.5,37.3,3.8z"/>
			<path class="st4" d="M48.4,22.2c-0.4-0.4-0.6-1-0.5-1.5c0-0.5,0.2-1,0.7-1.4c0.8-0.8,2.1-0.7,2.9,0.1c0.4,0.4,0.6,1,0.5,1.5
				c0,0.5-0.2,1-0.7,1.4C50.5,23.1,49.2,23,48.4,22.2z"/>
			<path class="st1" d="M43.7,45.4c0-0.5,0.2-1,0.7-1.4c0.8-0.8,2.1-0.7,2.9,0.1c0.4,0.4,0.6,1,0.5,1.5c0,0.5-0.2,1-0.7,1.4
				c-0.8,0.8-2.1,0.7-2.9-0.1C43.8,46.4,43.6,45.9,43.7,45.4z"/>
			<path class="st4" d="M18.8,49.4c0.8-0.8,2.1-0.7,2.9,0.1c0.4,0.4,0.6,1,0.5,1.5c0,0.5-0.2,1-0.7,1.4c-0.8,0.8-2.1,0.7-2.9-0.1
				c-0.4-0.4-0.6-1-0.5-1.5C18.1,50.3,18.4,49.8,18.8,49.4z"/>
		</g>
	</g>
</g>
</svg>
